<?xml version="1.0" encoding="utf-8"?>
<!-- Generator: Adobe Illustrator 16.0.4, SVG Export Plug-In . SVG Version: 6.00 Build 0)  -->
<!DOCTYPE svg PUBLIC "-//W3C//DTD SVG 1.1//EN" "http://www.w3.org/Graphics/SVG/1.1/DTD/svg11.dtd">
<svg version="1.1" id="Layer_1" xmlns="http://www.w3.org/2000/svg" xmlns:xlink="http://www.w3.org/1999/xlink" x="0px" y="0px"
	 width="151.75px" height="57.125px" viewBox="0 0 151.75 57.125" enable-background="new 0 0 151.75 57.125" xml:space="preserve">
<path fill="#FFFFFF" d="M97.539,37.032l-10.012,1.186c-3.604,0.498-6.93-2.021-7.428-5.627l5.051-0.71
	c0.699,0.905,2.121,1.385,3.334,1.217l6.527-0.902c1.803-0.247,3.061-1.91,2.813-3.713l-0.677-4.896
	c-0.25-1.803-1.912-3.062-3.715-2.814l-6.526,0.902c-1.279,0.176-2.438,0.945-2.826,2.09l-5.108,0.668
	c-0.498-3.605,2.021-6.932,5.627-7.43l9.875-1.46c3.604-0.498,6.932,2.021,7.43,5.626l1.262,8.436
	C103.664,33.209,101.145,36.535,97.539,37.032z M63.894,21.165l-6.59-0.019c-1.819-0.005-3.299,1.467-3.303,3.286l-0.014,4.942
	c-0.005,1.819,1.467,3.299,3.286,3.304l6.59,0.018c1.225,0.005,2.569-0.66,3.14-1.65l5.392,0.125
	c-0.01,3.639-2.967,6.581-6.607,6.571l-10.272-0.028c-3.64-0.01-6.582-2.968-6.572-6.607l0.12-8.333
	c0.01-3.639,2.968-6.582,6.607-6.571l9.885,0.026c3.639,0.01,6.582,2.969,6.572,6.607l-5.152,0.023
	C66.437,21.775,65.184,21.168,63.894,21.165z M63.515,26.565c0.004-1.364,1.113-2.468,2.478-2.464l7.589,0.152v5.174l-7.239-0.02
	C64.978,29.404,63.511,27.93,63.515,26.565z M87.613,27.322c0.188,1.353-0.676,2.662-2.027,2.849l-6.807,0.938l-0.715-5.083
	l6.764-0.813C86.18,25.025,87.428,25.971,87.613,27.322z"/>
<g>
	<path fill="#FFFFFF" d="M69.057,11.816c-2.006-0.442-1.419,1.346-1.419,1.346l5.35,5.887c1.278,0.623,0.968-0.731,0.968-0.731
		L69.057,11.816z"/>
	<path fill="#FFFFFF" d="M75.225,11.168l0.296,7.178c0,0,0.495,1.123,1.07-0.041l0.354-7.013
		C76.945,11.292,76.346,9.744,75.225,11.168z"/>
	<path fill="#FFFFFF" d="M82.695,11.816l-4.897,6.501c0,0-0.188,1.229,0.968,0.731l5.352-5.887
		C84.116,13.162,84.702,11.374,82.695,11.816z"/>
</g>
<path fill="#FFFFFF" d="M73.955,36.46l-4.898,6.501c-2.006,0.441-1.419-1.346-1.419-1.346l5.35-5.887
	C74.266,35.105,73.955,36.46,73.955,36.46z"/>
<path fill="#FFFFFF" d="M75.521,36.432l-0.296,7.178c1.121,1.425,1.722-0.123,1.722-0.123l-0.355-7.014
	C76.016,35.309,75.521,36.432,75.521,36.432z"/>
<path fill="#FFFFFF" d="M77.798,36.46l4.897,6.501c2.007,0.441,1.421-1.346,1.421-1.346l-5.351-5.887
	C77.609,35.23,77.798,36.46,77.798,36.46z"/>
<g>
	<polygon fill="#FFFFFF" points="25.188,30.109 25.188,20.786 21.265,30.109 	"/>
	<path fill="#FFFFFF" d="M4.75,1.5v53.875h31.375V46.5H45v-45H4.75z M31.019,33.709h-1.872v4.571h-3.959v-4.571h-7.559v-3.6
		l7.199-17.026h4.319v17.026h1.872V33.709z"/>
</g>
<g>
	<polygon fill="#FFFFFF" points="129.188,30.109 129.188,20.786 125.266,30.109 	"/>
	<path fill="#FFFFFF" d="M108.75,1.5v45h8.875v8.875H149V1.5H108.75z M135.02,33.709h-1.871v4.571h-3.961v-4.571h-7.559v-3.6
		l7.199-17.026h4.318v17.026h1.873V33.709L135.02,33.709z"/>
</g>
<polygon opacity="0.3" enable-background="new    " points="117.625,46.5 117.625,55.375 108.75,46.5 "/>
<polygon opacity="0.3" enable-background="new    " points="36.125,46.5 36.125,55.375 45,46.5 "/>
<polygon opacity="0.03" enable-background="new    " points="117.625,55.375 117.625,46.5 126.5,55.375 "/>
<linearGradient id="SVGID_1_" gradientUnits="userSpaceOnUse" x1="18.79" y1="34.1709" x2="39.3562" y2="19.3528" gradientTransform="matrix(1 0 0 -1 0.1401 56.1797)">
	<stop  offset="0" style="stop-color:#000000"/>
	<stop  offset="0.0896" style="stop-color:#000000;stop-opacity:0.9104"/>
	<stop  offset="1" style="stop-color:#000000;stop-opacity:0"/>
</linearGradient>
<polygon opacity="0.1" fill="url(#SVGID_1_)" enable-background="new    " points="29.147,13.147 29.147,30.109 31.019,30.109 
	31.019,33.709 29.147,33.709 29.147,38.28 25.188,38.28 25.188,33.709 17.629,33.709 30.46,46.54 44.812,28.812 "/>
<linearGradient id="SVGID_2_" gradientUnits="userSpaceOnUse" x1="125.2354" y1="35.6006" x2="142.6097" y2="17.1013" gradientTransform="matrix(1 0 0 -1 0.1401 56.1797)">
	<stop  offset="0" style="stop-color:#000000"/>
	<stop  offset="0.0896" style="stop-color:#000000;stop-opacity:0.9104"/>
	<stop  offset="1" style="stop-color:#000000;stop-opacity:0"/>
</linearGradient>
<polygon opacity="0.1" fill="url(#SVGID_2_)" enable-background="new    " points="133.312,13.125 133.146,13.42 133.146,30.109 
	135.02,30.109 135.02,33.709 133.146,33.709 133.146,38.28 129.188,38.28 129.188,33.709 121.816,33.709 134.646,46.54 149,28.812 
	"/>
<linearGradient id="SVGID_3_" gradientUnits="userSpaceOnUse" x1="20.3438" y1="33.4395" x2="33.2277" y2="27.7676" gradientTransform="matrix(1 0 0 -1 0.1401 56.1797)">
	<stop  offset="0" style="stop-color:#000000;stop-opacity:0"/>
	<stop  offset="0.0642" style="stop-color:#000000;stop-opacity:0.2943"/>
	<stop  offset="1" style="stop-color:#000000"/>
</linearGradient>
<path opacity="0.3" fill="url(#SVGID_3_)" enable-background="new    " d="M29.147,30.109V13.083h-4.319l-7.199,17.026v3.6h7.559
	v4.571h3.959v-4.571h1.872v-3.6H29.147z M25.188,30.109h-3.923l3.923-9.323V30.109z"/>
<linearGradient id="SVGID_4_" gradientUnits="userSpaceOnUse" x1="124.8584" y1="33.4004" x2="137.163" y2="28.1153" gradientTransform="matrix(1 0 0 -1 0.1401 56.1797)">
	<stop  offset="0" style="stop-color:#000000;stop-opacity:0"/>
	<stop  offset="0.0642" style="stop-color:#000000;stop-opacity:0.2943"/>
	<stop  offset="1" style="stop-color:#000000"/>
</linearGradient>
<path opacity="0.3" fill="url(#SVGID_4_)" enable-background="new    " d="M133.335,29.938V12.912h-4.319l-7.199,17.025v3.601h7.56
	v4.571h3.96v-4.571h1.872v-3.601H133.335z M129.375,29.938h-3.923l3.923-9.322V29.938z"/>
</svg>
